solid OpenSCAD_Model
  facet normal -1 0 0
    outer loop
      vertex -75 -43.75 0
      vertex -75 -43.75 5
      vertex -75 43.75 0
    endloop
  endfacet
  facet normal -1 0 0
    outer loop
      vertex -75 43.75 0
      vertex -75 -43.75 5
      vertex -75 43.75 5
    endloop
  endfacet
  facet normal 0 -1 0
    outer loop
      vertex -75 -43.75 5
      vertex -75 -43.75 0
      vertex 75 -43.75 0
    endloop
  endfacet
  facet normal 0 -1 0
    outer loop
      vertex 75 -43.75 5
      vertex -75 -43.75 5
      vertex 75 -43.75 0
    endloop
  endfacet
  facet normal 0 0 -1
    outer loop
      vertex -55.75 32.75 0
      vertex -75 43.75 0
      vertex 75 43.75 0
    endloop
  endfacet
  facet normal 0 0 -1
    outer loop
      vertex 55.75 32.75 0
      vertex -55.75 32.75 0
      vertex 75 43.75 0
    endloop
  endfacet
  facet normal 0 0 -1
    outer loop
      vertex -75 -43.75 0
      vertex -75 43.75 0
      vertex -55.75 -32.75 0
    endloop
  endfacet
  facet normal 0 0 -1
    outer loop
      vertex -75 -43.75 0
      vertex -55.75 -32.75 0
      vertex 75 -43.75 0
    endloop
  endfacet
  facet normal 0 0 -1
    outer loop
      vertex 55.75 32.75 0
      vertex 75 -43.75 0
      vertex 55.75 -32.75 0
    endloop
  endfacet
  facet normal 0 0 -1
    outer loop
      vertex -55.75 -32.75 0
      vertex 55.75 -32.75 0
      vertex 75 -43.75 0
    endloop
  endfacet
  facet normal 0 0 -1
    outer loop
      vertex 75 -43.75 0
      vertex 55.75 32.75 0
      vertex 75 43.75 0
    endloop
  endfacet
  facet normal 0 0 -1
    outer loop
      vertex -55.75 -32.75 0
      vertex -75 43.75 0
      vertex -55.75 32.75 0
    endloop
  endfacet
  facet normal 0 1 0
    outer loop
      vertex -75 43.75 0
      vertex -75 43.75 5
      vertex 75 43.75 0
    endloop
  endfacet
  facet normal 0 1 0
    outer loop
      vertex 75 43.75 0
      vertex -75 43.75 5
      vertex 75 43.75 5
    endloop
  endfacet
  facet normal 0 0 1
    outer loop
      vertex -51.75 -28.5 5
      vertex -75 -43.75 5
      vertex 75 -43.75 5
    endloop
  endfacet
  facet normal 0 0 1
    outer loop
      vertex -75 43.75 5
      vertex -75 -43.75 5
      vertex -51.75 -28.5 5
    endloop
  endfacet
  facet normal 0 0 1
    outer loop
      vertex -51.75 28.5 5
      vertex 51.75 28.5 5
      vertex -75 43.75 5
    endloop
  endfacet
  facet normal 0 0 1
    outer loop
      vertex -75 43.75 5
      vertex -51.75 -28.5 5
      vertex -51.75 28.5 5
    endloop
  endfacet
  facet normal 0 0 1
    outer loop
      vertex 75 43.75 5
      vertex 51.75 28.5 5
      vertex 75 -43.75 5
    endloop
  endfacet
  facet normal 0 0 1
    outer loop
      vertex 75 43.75 5
      vertex -75 43.75 5
      vertex 51.75 28.5 5
    endloop
  endfacet
  facet normal 0 0 1
    outer loop
      vertex 51.75 28.5 5
      vertex 51.75 -28.5 5
      vertex 75 -43.75 5
    endloop
  endfacet
  facet normal 0 0 1
    outer loop
      vertex 51.75 -28.5 5
      vertex -51.75 -28.5 5
      vertex 75 -43.75 5
    endloop
  endfacet
  facet normal 1 0 0
    outer loop
      vertex 75 -43.75 5
      vertex 75 -43.75 0
      vertex 75 43.75 0
    endloop
  endfacet
  facet normal 1 0 0
    outer loop
      vertex 75 43.75 5
      vertex 75 -43.75 5
      vertex 75 43.75 0
    endloop
  endfacet
  facet normal 1 0 0
    outer loop
      vertex -55.75 32.75 0
      vertex -55.75 32.75 2.95
      vertex -55.75 -32.75 2.95
    endloop
  endfacet
  facet normal 1 0 0
    outer loop
      vertex -55.75 -32.75 0
      vertex -55.75 32.75 0
      vertex -55.75 -32.75 2.95
    endloop
  endfacet
  facet normal 0 -1 0
    outer loop
      vertex 55.75 32.75 0
      vertex 55.75 32.75 2.95
      vertex -55.75 32.75 2.95
    endloop
  endfacet
  facet normal 0 -1 0
    outer loop
      vertex -55.75 32.75 0
      vertex 55.75 32.75 0
      vertex -55.75 32.75 2.95
    endloop
  endfacet
  facet normal -1 0 0
    outer loop
      vertex 55.75 32.75 2.95
      vertex 55.75 32.75 0
      vertex 55.75 -32.75 2.95
    endloop
  endfacet
  facet normal -1 0 0
    outer loop
      vertex 55.75 -32.75 2.95
      vertex 55.75 32.75 0
      vertex 55.75 -32.75 0
    endloop
  endfacet
  facet normal 0 1 0
    outer loop
      vertex 55.75 -32.75 2.95
      vertex 55.75 -32.75 0
      vertex -55.75 -32.75 2.95
    endloop
  endfacet
  facet normal 0 1 0
    outer loop
      vertex -55.75 -32.75 2.95
      vertex 55.75 -32.75 0
      vertex -55.75 -32.75 0
    endloop
  endfacet
  facet normal 1 0 0
    outer loop
      vertex -51.75 28.5 2.95
      vertex -51.75 28.5 5
      vertex -51.75 -28.5 5
    endloop
  endfacet
  facet normal 1 0 0
    outer loop
      vertex -51.75 -28.5 2.95
      vertex -51.75 28.5 2.95
      vertex -51.75 -28.5 5
    endloop
  endfacet
  facet normal 0 1 0
    outer loop
      vertex 51.75 -28.5 5
      vertex 51.75 -28.5 2.95
      vertex -51.75 -28.5 5
    endloop
  endfacet
  facet normal 0 1 0
    outer loop
      vertex -51.75 -28.5 5
      vertex 51.75 -28.5 2.95
      vertex -51.75 -28.5 2.95
    endloop
  endfacet
  facet normal -1 0 0
    outer loop
      vertex 51.75 28.5 5
      vertex 51.75 28.5 2.95
      vertex 51.75 -28.5 5
    endloop
  endfacet
  facet normal -1 0 0
    outer loop
      vertex 51.75 -28.5 5
      vertex 51.75 28.5 2.95
      vertex 51.75 -28.5 2.95
    endloop
  endfacet
  facet normal 0 -1 0
    outer loop
      vertex 51.75 28.5 2.95
      vertex 51.75 28.5 5
      vertex -51.75 28.5 5
    endloop
  endfacet
  facet normal 0 -1 0
    outer loop
      vertex -51.75 28.5 2.95
      vertex 51.75 28.5 2.95
      vertex -51.75 28.5 5
    endloop
  endfacet
  facet normal 0 0 -1
    outer loop
      vertex -51.75 28.5 2.95
      vertex -55.75 32.75 2.95
      vertex 51.75 28.5 2.95
    endloop
  endfacet
  facet normal 0 0 -1
    outer loop
      vertex -51.75 -28.5 2.95
      vertex 55.75 -32.75 2.95
      vertex -55.75 -32.75 2.95
    endloop
  endfacet
  facet normal 0 0 -1
    outer loop
      vertex -55.75 32.75 2.95
      vertex -51.75 -28.5 2.95
      vertex -55.75 -32.75 2.95
    endloop
  endfacet
  facet normal 0 0 -1
    outer loop
      vertex 55.75 32.75 2.95
      vertex 55.75 -32.75 2.95
      vertex 51.75 -28.5 2.95
    endloop
  endfacet
  facet normal 0 0 -1
    outer loop
      vertex 55.75 32.75 2.95
      vertex 51.75 -28.5 2.95
      vertex 51.75 28.5 2.95
    endloop
  endfacet
  facet normal 0 0 -1
    outer loop
      vertex 55.75 32.75 2.95
      vertex 51.75 28.5 2.95
      vertex -55.75 32.75 2.95
    endloop
  endfacet
  facet normal 0 0 -1
    outer loop
      vertex -55.75 32.75 2.95
      vertex -51.75 28.5 2.95
      vertex -51.75 -28.5 2.95
    endloop
  endfacet
  facet normal 0 0 -1
    outer loop
      vertex 51.75 -28.5 2.95
      vertex 55.75 -32.75 2.95
      vertex -51.75 -28.5 2.95
    endloop
  endfacet
endsolid OpenSCAD_Model
